{
  "asset": {
    "version": "2.0",
    "generator": "THREE.GLTFExporter"
  },
  "scenes": [
    {
      "name": "AuxScene",
      "nodes": [
        7
      ]
    }
  ],
  "scene": 0,
  "nodes": [
    {
      "name": "object_0",
      "mesh": 0
    },
    {
      "name": "object_1",
      "mesh": 1
    },
    {
      "name": "object_2",
      "mesh": 2
    },
    {
      "name": "object_3",
      "mesh": 3
    },
    {
      "name": "object_4",
      "mesh": 4
    },
    {
      "name": "object_5",
      "mesh": 5
    },
    {
      "name": "object_6",
      "mesh": 6
    },
    {
      "children": [
        0,
        1,
        2,
        3,
        4,
        5,
        6
      ]
    }
  ],
  "bufferViews": [
    {
      "buffer": 0,
      "byteOffset": 0,
      "byteLength": 176688,
      "target": 34962,
      "byteStride": 12
    },
    {
      "buffer": 0,
      "byteOffset": 176688,
      "byteLength": 176688,
      "target": 34962,
      "byteStride": 12
    },
    {
      "buffer": 0,
      "byteOffset": 353376,
      "byteLength": 117792,
      "target": 34962,
      "byteStride": 8
    },
    {
      "buffer": 0,
      "byteOffset": 471168,
      "byteLength": 54216,
      "target": 34962,
      "byteStride": 12
    },
    {
      "buffer": 0,
      "byteOffset": 525384,
      "byteLength": 54216,
      "target": 34962,
      "byteStride": 12
    },
    {
      "buffer": 0,
      "byteOffset": 579600,
      "byteLength": 36144,
      "target": 34962,
      "byteStride": 8
    },
    {
      "buffer": 0,
      "byteOffset": 615744,
      "byteLength": 98352,
      "target": 34962,
      "byteStride": 12
    },
    {
      "buffer": 0,
      "byteOffset": 714096,
      "byteLength": 98352,
      "target": 34962,
      "byteStride": 12
    },
    {
      "buffer": 0,
      "byteOffset": 812448,
      "byteLength": 65568,
      "target": 34962,
      "byteStride": 8
    },
    {
      "buffer": 0,
      "byteOffset": 878016,
      "byteLength": 117216,
      "target": 34962,
      "byteStride": 12
    },
    {
      "buffer": 0,
      "byteOffset": 995232,
      "byteLength": 117216,
      "target": 34962,
      "byteStride": 12
    },
    {
      "buffer": 0,
      "byteOffset": 1112448,
      "byteLength": 78144,
      "target": 34962,
      "byteStride": 8
    },
    {
      "buffer": 0,
      "byteOffset": 1190592,
      "byteLength": 106560,
      "target": 34962,
      "byteStride": 12
    },
    {
      "buffer": 0,
      "byteOffset": 1297152,
      "byteLength": 106560,
      "target": 34962,
      "byteStride": 12
    },
    {
      "buffer": 0,
      "byteOffset": 1403712,
      "byteLength": 71040,
      "target": 34962,
      "byteStride": 8
    },
    {
      "buffer": 0,
      "byteOffset": 1474752,
      "byteLength": 50112,
      "target": 34962,
      "byteStride": 12
    },
    {
      "buffer": 0,
      "byteOffset": 1524864,
      "byteLength": 50112,
      "target": 34962,
      "byteStride": 12
    },
    {
      "buffer": 0,
      "byteOffset": 1574976,
      "byteLength": 33408,
      "target": 34962,
      "byteStride": 8
    },
    {
      "buffer": 0,
      "byteOffset": 1608384,
      "byteLength": 72,
      "target": 34962,
      "byteStride": 12
    },
    {
      "buffer": 0,
      "byteOffset": 1608456,
      "byteLength": 72,
      "target": 34962,
      "byteStride": 12
    },
    {
      "buffer": 0,
      "byteOffset": 1608528,
      "byteLength": 48,
      "target": 34962,
      "byteStride": 8
    }
  ],
  "buffers": [
    {
      "byteLength": 1608576,
      "uri": "data:application/octet-stream;base64,"
    }
  ],
  "accessors": [
    {
      "bufferView": 0,
      "componentType": 5126,
      "count": 14724,
      "max": [
        22.350536346435547,
        17.908546447753906,
        176.99009704589844
      ],
      "min": [
        -22.65329933166504,
        -29.09079933166504,
        26.04170036315918
      ],
      "type": "VEC3"
    },
    {
      "bufferView": 1,
      "componentType": 5126,
      "count": 14724,
      "max": [
        0.9998549818992615,
        0.9997779726982117,
        0.9998469948768616
      ],
      "min": [
        -0.9999790191650391,
        -0.9999690055847168,
        -0.9997609853744507
      ],
      "type": "VEC3"
    },
    {
      "bufferView": 2,
      "componentType": 5126,
      "count": 14724,
      "max": [
        0.9798979759216309,
        0.959201991558075
      ],
      "min": [
        0.012000000104308128,
        0.02370000071823597
      ],
      "type": "VEC2"
    },
    {
      "bufferView": 3,
      "componentType": 5126,
      "count": 4518,
      "max": [
        28.097135543823242,
        32.80353546142578,
        199.12315368652344
      ],
      "min": [
        -28.53660011291504,
        -16.96619987487793,
        102.3239974975586
      ],
      "type": "VEC3"
    },
    {
      "bufferView": 4,
      "componentType": 5126,
      "count": 4518,
      "max": [
        0.9995219707489014,
        0.9999979734420776,
        0.9999619722366333
      ],
      "min": [
        -0.9995219707489014,
        -0.9999979734420776,
        -0.9999909996986389
      ],
      "type": "VEC3"
    },
    {
      "bufferView": 5,
      "componentType": 5126,
      "count": 4518,
      "max": [
        0.9918969869613647,
        0.9965999722480774
      ],
      "min": [
        0.0019000000320374966,
        0.01590000092983246
      ],
      "type": "VEC2"
    },
    {
      "bufferView": 6,
      "componentType": 5126,
      "count": 8196,
      "max": [
        17.369518280029297,
        13.909858703613281,
        239.7136993408203
      ],
      "min": [
        -17.369400024414062,
        -18.950199127197266,
        191.38499450683594
      ],
      "type": "VEC3"
    },
    {
      "bufferView": 7,
      "componentType": 5126,
      "count": 8196,
      "max": [
        0.9999690055847168,
        0.9982590079307556,
        0.9998469948768616
      ],
      "min": [
        -0.9999690055847168,
        -0.9998070001602173,
        -0.9999139904975891
      ],
      "type": "VEC3"
    },
    {
      "bufferView": 8,
      "componentType": 5126,
      "count": 8196,
      "max": [
        0.9992030262947083,
        0.9851009845733643
      ],
      "min": [
        0.02250000089406967,
        0.02459999918937683
      ],
      "type": "VEC2"
    },
    {
      "bufferView": 9,
      "componentType": 5126,
      "count": 9768,
      "max": [
        63.92002487182617,
        62.895721435546875,
        242.29148864746094
      ],
      "min": [
        -67.37349700927734,
        -20.6210994720459,
        -2.599299907684326
      ],
      "type": "VEC3"
    },
    {
      "bufferView": 10,
      "componentType": 5126,
      "count": 9768,
      "max": [
        0.9976400136947632,
        0.9998260140419006,
        0.9986259937286377
      ],
      "min": [
        -0.998881995677948,
        -0.999567985534668,
        -0.9999909996986389
      ],
      "type": "VEC3"
    },
    {
      "bufferView": 11,
      "componentType": 5126,
      "count": 9768,
      "max": [
        0.990202009677887,
        0.9999979734420776
      ],
      "min": [
        0,
        0
      ],
      "type": "VEC2"
    },
    {
      "bufferView": 12,
      "componentType": 5126,
      "count": 8880,
      "max": [
        117.83246612548828,
        132.31068420410156,
        228.1106414794922
      ],
      "min": [
        -116.177001953125,
        -17.087499618530273,
        24.066600799560547
      ],
      "type": "VEC3"
    },
    {
      "bufferView": 13,
      "componentType": 5126,
      "count": 8880,
      "max": [
        0.9979199767112732,
        0.9999120235443115,
        0.9978529810905457
      ],
      "min": [
        -0.9981589913368225,
        -0.9987509846687317,
        -0.9953830242156982
      ],
      "type": "VEC3"
    },
    {
      "bufferView": 14,
      "componentType": 5126,
      "count": 8880,
      "max": [
        0.9940969944000244,
        0.9944959878921509
      ],
      "min": [
        0.013700000010430813,
        0.027000000700354576
      ],
      "type": "VEC2"
    },
    {
      "bufferView": 15,
      "componentType": 5126,
      "count": 4176,
      "max": [
        43.97322463989258,
        40.3182487487793,
        199.312744140625
      ],
      "min": [
        -44.63890075683594,
        -31.26289939880371,
        -1.1075999736785889
      ],
      "type": "VEC3"
    },
    {
      "bufferView": 16,
      "componentType": 5126,
      "count": 4176,
      "max": [
        0.9919580221176147,
        0.9976999759674072,
        0.9983869791030884
      ],
      "min": [
        -0.9929010272026062,
        -0.9976999759674072,
        -0.9930490255355835
      ],
      "type": "VEC3"
    },
    {
      "bufferView": 17,
      "componentType": 5126,
      "count": 4176,
      "max": [
        0.987097978591919,
        0.9997979998588562
      ],
      "min": [
        0.0052999998442828655,
        0.006500000134110451
      ],
      "type": "VEC2"
    },
    {
      "bufferView": 18,
      "componentType": 5126,
      "count": 6,
      "max": [
        27.997407913208008,
        59.91160583496094,
        279.31390380859375
      ],
      "min": [
        -27.997400283813477,
        31.914199829101562,
        230.8209991455078
      ],
      "type": "VEC3"
    },
    {
      "bufferView": 19,
      "componentType": 5126,
      "count": 6,
      "max": [
        0.003771000076085329,
        0.8667449951171875,
        0.49873799085617065
      ],
      "min": [
        0.003771000076085329,
        0.8667449951171875,
        0.49873799085617065
      ],
      "type": "VEC3"
    },
    {
      "bufferView": 20,
      "componentType": 5126,
      "count": 6,
      "max": [
        1.0000009536743164,
        1.0000009536743164
      ],
      "min": [
        0,
        0
      ],
      "type": "VEC2"
    }
  ],
  "materials": [
    {
      "pbrMetallicRoughness": {
        "metallicFactor": 0.5,
        "roughnessFactor": 0.5
      },
      "name": "object_0"
    },
    {
      "pbrMetallicRoughness": {
        "metallicFactor": 0.5,
        "roughnessFactor": 0.5
      },
      "name": "object_1"
    },
    {
      "pbrMetallicRoughness": {
        "metallicFactor": 0.5,
        "roughnessFactor": 0.5
      },
      "name": "object_2"
    },
    {
      "pbrMetallicRoughness": {
        "metallicFactor": 0.5,
        "roughnessFactor": 0.5
      },
      "name": "object_3"
    },
    {
      "pbrMetallicRoughness": {
        "metallicFactor": 0.5,
        "roughnessFactor": 0.5
      },
      "name": "object_4"
    },
    {
      "pbrMetallicRoughness": {
        "metallicFactor": 0.5,
        "roughnessFactor": 0.5
      },
      "name": "object_5"
    },
    {
      "pbrMetallicRoughness": {
        "metallicFactor": 0.5,
        "roughnessFactor": 0.5
      },
      "name": "object_6"
    }
  ],
  "meshes": [
    {
      "primitives": [
        {
          "mode": 4,
          "attributes": {
            "POSITION": 0,
            "NORMAL": 1,
            "TEXCOORD_0": 2
          },
          "material": 0
        }
      ]
    },
    {
      "primitives": [
        {
          "mode": 4,
          "attributes": {
            "POSITION": 3,
            "NORMAL": 4,
            "TEXCOORD_0": 5
          },
          "material": 1
        }
      ]
    },
    {
      "primitives": [
        {
          "mode": 4,
          "attributes": {
            "POSITION": 6,
            "NORMAL": 7,
            "TEXCOORD_0": 8
          },
          "material": 2
        }
      ]
    },
    {
      "primitives": [
        {
          "mode": 4,
          "attributes": {
            "POSITION": 9,
            "NORMAL": 10,
            "TEXCOORD_0": 11
          },
          "material": 3
        }
      ]
    },
    {
      "primitives": [
        {
          "mode": 4,
          "attributes": {
            "POSITION": 12,
            "NORMAL": 13,
            "TEXCOORD_0": 14
          },
          "material": 4
        }
      ]
    },
    {
      "primitives": [
        {
          "mode": 4,
          "attributes": {
            "POSITION": 15,
            "NORMAL": 16,
            "TEXCOORD_0": 17
          },
          "material": 5
        }
      ]
    },
    {
      "primitives": [
        {
          "mode": 4,
          "attributes": {
            "POSITION": 18,
            "NORMAL": 19,
            "TEXCOORD_0": 20
          },
          "material": 6
        }
      ]
    }
  ]
}